<svg width="27" height="27" viewBox="0 0 27 27" fill="none" xmlns="http://www.w3.org/2000/svg">
<g clip-path="url(#clip0_54_1292)">
<path d="M27 13.582C27 6.12615 20.9558 0.0820007 13.5 0.0820007C6.04415 0.0820007 0 6.12615 0 13.582C0 20.3202 4.93678 25.9052 11.3906 26.918V17.4843H7.96289V13.582H11.3906V10.6078C11.3906 7.22434 13.4061 5.35544 16.4898 5.35544C17.9668 5.35544 19.5117 5.61911 19.5117 5.61911V8.94138H17.8094C16.1324 8.94138 15.6094 9.98198 15.6094 11.0496V13.582H19.3535L18.755 17.4843H15.6094V26.918C22.0633 25.9052 27 20.3202 27 13.582Z" fill="#A2A2A2"/>
</g>
<defs>
<clipPath id="clip0_54_1292">
<rect width="27" height="27" fill="white"/>
</clipPath>
</defs>
</svg>
