<svg width="30" height="30" viewBox="0 0 30 30" fill="none" xmlns="http://www.w3.org/2000/svg">
<path d="M14.9204 8.83598C11.2167 8.83598 8.14795 11.8518 8.14795 15.6085C8.14795 19.3651 11.1638 22.3809 14.9204 22.3809C18.6771 22.3809 21.6929 19.3122 21.6929 15.6085C21.6929 11.9048 18.6241 8.83598 14.9204 8.83598ZM14.9204 19.9471C12.5395 19.9471 10.5818 17.9894 10.5818 15.6085C10.5818 13.2275 12.5395 11.2698 14.9204 11.2698C17.3014 11.2698 19.2591 13.2275 19.2591 15.6085C19.2591 17.9894 17.3014 19.9471 14.9204 19.9471Z" fill="#A2A2A2"/>
<path d="M21.9575 10.2116C22.8049 10.2116 23.4919 9.52467 23.4919 8.67724C23.4919 7.82982 22.8049 7.14285 21.9575 7.14285C21.1101 7.14285 20.4231 7.82982 20.4231 8.67724C20.4231 9.52467 21.1101 10.2116 21.9575 10.2116Z" fill="#A2A2A2"/>
<path d="M25.9258 4.70899C24.5501 3.28042 22.5925 2.53968 20.3703 2.53968H9.47079C4.86761 2.53968 1.79883 5.60846 1.79883 10.2116V21.0582C1.79883 23.3333 2.53957 25.291 4.02105 26.7196C5.44962 28.0952 7.35438 28.7831 9.5237 28.7831H20.3173C22.5925 28.7831 24.4972 28.0423 25.8729 26.7196C27.3015 25.3439 28.0422 23.3862 28.0422 21.1111V10.2116C28.0422 7.98942 27.3015 6.08465 25.9258 4.70899ZM25.7142 21.1111C25.7142 22.7513 25.1322 24.0741 24.1798 24.9735C23.2274 25.873 21.9046 26.3492 20.3173 26.3492H9.5237C7.93639 26.3492 6.61364 25.873 5.66126 24.9735C4.70888 24.0212 4.23269 22.6984 4.23269 21.0582V10.2116C4.23269 8.62434 4.70888 7.30159 5.66126 6.3492C6.56073 5.44973 7.93639 4.97354 9.5237 4.97354H20.4232C22.0105 4.97354 23.3332 5.44973 24.2856 6.40211C25.1851 7.3545 25.7142 8.67725 25.7142 10.2116V21.1111Z" fill="#A2A2A2"/>
</svg>
