<svg width="22" height="22" viewBox="0 0 22 22" fill="none" xmlns="http://www.w3.org/2000/svg">
<path d="M18.3333 2.75H3.66667C1.65 2.75 0 4.4 0 6.41667V15.5833C0 17.6 1.65 19.25 3.66667 19.25H18.3333C20.35 19.25 22 17.6 22 15.5833V6.41667C22 4.4 20.35 2.75 18.3333 2.75ZM19.8 8.06667L12.5583 12.925C12.1 13.2 11.55 13.3833 11 13.3833C10.45 13.3833 9.9 13.2 9.44167 12.925L2.2 8.06667C1.83333 7.79167 1.74167 7.24167 2.01667 6.78333C2.29167 6.41667 2.84167 6.325 3.3 6.6L10.5417 11.4583C10.8167 11.6417 11.275 11.6417 11.55 11.4583L18.7917 6.6C19.25 6.325 19.8 6.41667 20.075 6.875C20.2583 7.24167 20.1667 7.79167 19.8 8.06667Z" fill="#A2A2A2"/>
</svg>
