<svg width="20" height="20" viewBox="0 0 20 20" fill="none" xmlns="http://www.w3.org/2000/svg">
<path d="M19.4286 15.6071C19.4286 15.8482 19.3839 16.1629 19.2946 16.5513C19.2053 16.9397 19.1116 17.2455 19.0134 17.4687C18.8259 17.9152 18.2812 18.3884 17.3794 18.8884C16.5402 19.3437 15.7098 19.5714 14.8884 19.5714C14.6473 19.5714 14.4129 19.5558 14.1853 19.5245C13.9576 19.4933 13.7009 19.4375 13.4152 19.3571C13.1294 19.2768 12.9174 19.212 12.779 19.1629C12.6406 19.1138 12.3928 19.0223 12.0357 18.8884C11.6786 18.7545 11.4598 18.6741 11.3794 18.6473C10.5044 18.3348 9.7232 17.9643 9.0357 17.5357C7.89284 16.8304 6.71204 15.8683 5.49329 14.6495C4.27454 13.4308 3.31248 12.25 2.60713 11.1071C2.17855 10.4196 1.80802 9.63839 1.49552 8.76339C1.46873 8.68303 1.38838 8.46428 1.25445 8.10714C1.12052 7.74999 1.029 7.50223 0.979893 7.36383C0.930786 7.22544 0.866054 7.01339 0.785697 6.72767C0.70534 6.44196 0.649536 6.18526 0.618286 5.95758C0.587036 5.7299 0.571411 5.49553 0.571411 5.25446C0.571411 4.43303 0.79909 3.60267 1.25445 2.76339C1.75445 1.8616 2.22766 1.31696 2.67409 1.12946C2.8973 1.03124 3.20311 0.937493 3.5915 0.848208C3.97989 0.758922 4.29463 0.714279 4.5357 0.714279C4.6607 0.714279 4.75445 0.727672 4.81695 0.754458C4.97766 0.808029 5.21427 1.14731 5.52677 1.77231C5.62498 1.94196 5.75891 2.18303 5.92855 2.49553C6.0982 2.80803 6.25445 3.09151 6.3973 3.34598C6.54016 3.60044 6.67855 3.83928 6.81248 4.06249C6.83927 4.09821 6.91739 4.20982 7.04686 4.39732C7.17632 4.58482 7.2723 4.7433 7.3348 4.87276C7.3973 5.00223 7.42855 5.12946 7.42855 5.25446C7.42855 5.43303 7.30132 5.65624 7.04686 5.9241C6.79239 6.19196 6.51561 6.43749 6.2165 6.66071C5.91739 6.88392 5.64061 7.12053 5.38614 7.37053C5.13168 7.62053 5.00445 7.82589 5.00445 7.9866C5.00445 8.06696 5.02677 8.1674 5.07141 8.28794C5.11605 8.40848 5.154 8.49999 5.18525 8.56249C5.2165 8.62499 5.279 8.73214 5.37275 8.88392C5.4665 9.03571 5.51784 9.12053 5.52677 9.13839C6.20534 10.3616 6.98213 11.4107 7.85713 12.2857C8.73213 13.1607 9.78123 13.9375 11.0044 14.6161C11.0223 14.625 11.1071 14.6763 11.2589 14.7701C11.4107 14.8638 11.5178 14.9263 11.5803 14.9576C11.6428 14.9888 11.7344 15.0268 11.8549 15.0714C11.9754 15.1161 12.0759 15.1384 12.1562 15.1384C12.3169 15.1384 12.5223 15.0112 12.7723 14.7567C13.0223 14.5022 13.2589 14.2254 13.4821 13.9263C13.7053 13.6272 13.9509 13.3504 14.2187 13.096C14.4866 12.8415 14.7098 12.7143 14.8884 12.7143C15.0134 12.7143 15.1406 12.7455 15.2701 12.808C15.3995 12.8705 15.558 12.9665 15.7455 13.096C15.933 13.2254 16.0446 13.3036 16.0803 13.3304C16.3036 13.4643 16.5424 13.6027 16.7969 13.7455C17.0513 13.8884 17.3348 14.0446 17.6473 14.2143C17.9598 14.3839 18.2009 14.5179 18.3705 14.6161C18.9955 14.9286 19.3348 15.1652 19.3884 15.3259C19.4152 15.3884 19.4286 15.4821 19.4286 15.6071Z" fill="#A2A2A2"/>
</svg>
