<svg width="27" height="27" viewBox="0 0 27 27" fill="none" xmlns="http://www.w3.org/2000/svg">
<g clip-path="url(#clip0_54_1290)">
<path d="M13.5 0C6.04415 0 0 6.04415 0 13.5C0 20.9558 6.04415 27 13.5 27C20.9558 27 27 20.9558 27 13.5C27 6.04415 20.9558 0 13.5 0ZM20.5168 8.53959L18.1191 19.9863C18.09 20.1248 18.0267 20.2537 17.9349 20.3613C17.843 20.4689 17.7256 20.5517 17.5934 20.602C17.4612 20.6524 17.3185 20.6687 17.1784 20.6495C17.0382 20.6304 16.9051 20.5763 16.7914 20.4922L13.3037 17.9156L11.1908 19.9089C11.1631 19.935 11.1305 19.9553 11.0949 19.9687C11.0593 19.9821 11.0214 19.9882 10.9834 19.9868C10.9454 19.9853 10.9081 19.9763 10.8736 19.9603C10.8391 19.9443 10.8082 19.9215 10.7826 19.8934L10.7372 19.8435L11.1043 16.2905L17.7216 10.2445C17.7544 10.2146 17.7747 10.1736 17.7787 10.1295C17.7826 10.0854 17.7699 10.0414 17.743 10.0062C17.7162 9.97098 17.6771 9.94713 17.6334 9.93934C17.5898 9.93156 17.5449 9.94039 17.5075 9.96411L9.04474 15.3203L5.4 14.0963C5.30309 14.0637 5.21862 14.002 5.1582 13.9195C5.09777 13.837 5.06434 13.7379 5.06249 13.6357C5.06064 13.5335 5.09046 13.4332 5.14787 13.3486C5.20528 13.264 5.28745 13.1992 5.38313 13.1632L19.6436 7.79119C19.7536 7.74979 19.8727 7.73871 19.9884 7.75909C20.1042 7.77948 20.2123 7.83059 20.3016 7.90707C20.3908 7.98356 20.4579 8.08261 20.4957 8.19388C20.5336 8.30515 20.5409 8.42455 20.5168 8.53959Z" fill="#A2A2A2"/>
</g>
<defs>
<clipPath id="clip0_54_1290">
<rect width="27" height="27" fill="white"/>
</clipPath>
</defs>
</svg>
